<svg width="16" height="16" viewBox="0 0 16 16" fill="none" xmlns="http://www.w3.org/2000/svg">
<path d="M8 10.6667C8.83333 10.6667 9.54167 10.375 10.125 9.79167C10.7083 9.20834 11 8.50001 11 7.66667C11 6.83334 10.7083 6.12501 10.125 5.54167C9.54167 4.95834 8.83333 4.66667 8 4.66667C7.16667 4.66667 6.45833 4.95834 5.875 5.54167C5.29167 6.12501 5 6.83334 5 7.66667C5 8.50001 5.29167 9.20834 5.875 9.79167C6.45833 10.375 7.16667 10.6667 8 10.6667ZM8 9.46667C7.5 9.46667 7.075 9.29167 6.725 8.94167C6.375 8.59167 6.2 8.16667 6.2 7.66667C6.2 7.16667 6.375 6.74167 6.725 6.39167C7.075 6.04167 7.5 5.86667 8 5.86667C8.5 5.86667 8.925 6.04167 9.275 6.39167C9.625 6.74167 9.8 7.16667 9.8 7.66667C9.8 8.16667 9.625 8.59167 9.275 8.94167C8.925 9.29167 8.5 9.46667 8 9.46667ZM8 12.6667C6.37778 12.6667 4.9 12.2139 3.56667 11.3083C2.23333 10.4028 1.26667 9.18889 0.666667 7.66667C1.26667 6.14445 2.23333 4.93056 3.56667 4.02501C4.9 3.11945 6.37778 2.66667 8 2.66667C9.62222 2.66667 11.1 3.11945 12.4333 4.02501C13.7667 4.93056 14.7333 6.14445 15.3333 7.66667C14.7333 9.18889 13.7667 10.4028 12.4333 11.3083C11.1 12.2139 9.62222 12.6667 8 12.6667ZM8 11.3333C9.25555 11.3333 10.4083 11.0028 11.4583 10.3417C12.5083 9.68056 13.3111 8.78889 13.8667 7.66667C13.3111 6.54445 12.5083 5.65278 11.4583 4.99167C10.4083 4.33056 9.25555 4.00001 8 4.00001C6.74444 4.00001 5.59167 4.33056 4.54167 4.99167C3.49167 5.65278 2.68889 6.54445 2.13333 7.66667C2.68889 8.78889 3.49167 9.68056 4.54167 10.3417C5.59167 11.0028 6.74444 11.3333 8 11.3333Z" fill="#374151"/>
</svg>
